<svg width="655" height="808" viewBox="0 0 655 808" fill="none" xmlns="http://www.w3.org/2000/svg">
<g filter="url(#filter0_d_102_2)">
<path d="M650.154 500C650.154 665.687 505.509 800 327.077 800C148.645 800 4 665.687 4 500C4 376.78 84.1518 271.14 198.557 224.967L211.2 234.1L266.762 274.227C157.397 299.48 75.7949 390.74 75.7949 500C75.7949 628.66 188.52 733.333 327.077 733.333C465.634 733.333 578.359 628.66 578.359 500C578.359 390.74 496.757 299.48 387.392 274.227L455.597 224.973C570.002 271.147 650.154 376.78 650.154 500ZM327.077 233.333L506.564 103.7L434.769 0H219.385L147.59 103.7L255.282 181.48L327.077 233.333Z" fill="white"/>
</g>
<defs>
<filter id="filter0_d_102_2" x="0" y="0" width="654.154" height="808" filterUnits="userSpaceOnUse" color-interpolation-filters="sRGB">
<feFlood flood-opacity="0" result="BackgroundImageFix"/>
<feColorMatrix in="SourceAlpha" type="matrix" values="0 0 0 0 0 0 0 0 0 0 0 0 0 0 0 0 0 0 127 0" result="hardAlpha"/>
<feOffset dy="4"/>
<feGaussianBlur stdDeviation="2"/>
<feComposite in2="hardAlpha" operator="out"/>
<feColorMatrix type="matrix" values="0 0 0 0 0 0 0 0 0 0 0 0 0 0 0 0 0 0 0.25 0"/>
<feBlend mode="normal" in2="BackgroundImageFix" result="effect1_dropShadow_102_2"/>
<feBlend mode="normal" in="SourceGraphic" in2="effect1_dropShadow_102_2" result="shape"/>
</filter>
</defs>
</svg>
